<svg width="13" height="13" viewBox="0 0 13 13" fill="none" xmlns="http://www.w3.org/2000/svg">
<path d="M2.16666 4.33337H10.8333" stroke="#3D4955" stroke-linecap="round" stroke-linejoin="round"/>
<path d="M8.66666 1.625V2.70833" stroke="#3D4955" stroke-linecap="round" stroke-linejoin="round"/>
<path d="M4.33334 1.625V2.70833" stroke="#3D4955" stroke-linecap="round" stroke-linejoin="round"/>
<path d="M1.625 3.24996C1.625 2.65165 2.11002 2.16663 2.70833 2.16663H10.2917C10.89 2.16663 11.375 2.65165 11.375 3.24996V10.2916C11.375 10.8899 10.89 11.375 10.2917 11.375H2.70833C2.11002 11.375 1.625 10.8899 1.625 10.2916V3.24996Z" stroke="#3D4955" stroke-linecap="round" stroke-linejoin="round"/>
<path d="M8.66666 8.9375H8.66774V8.93858H8.66666V8.9375Z" stroke="#3D4955" stroke-linecap="round" stroke-linejoin="round"/>
<path d="M6.5 8.9375H6.50108V8.93858H6.5V8.9375Z" stroke="#3D4955" stroke-linecap="round" stroke-linejoin="round"/>
<path d="M4.33334 8.9375H4.33443V8.93858H4.33334V8.9375Z" stroke="#3D4955" stroke-linecap="round" stroke-linejoin="round"/>
<path d="M8.66666 6.77087H8.66774V6.77196H8.66666V6.77087Z" stroke="#3D4955" stroke-linecap="round" stroke-linejoin="round"/>
<path d="M6.5 6.77087H6.50108V6.77196H6.5V6.77087Z" stroke="#3D4955" stroke-linecap="round" stroke-linejoin="round"/>
<path d="M4.33334 6.77087H4.33443V6.77196H4.33334V6.77087Z" stroke="#3D4955" stroke-linecap="round" stroke-linejoin="round"/>
</svg>
