<svg width="16" height="16" viewBox="0 0 16 16" fill="none" xmlns="http://www.w3.org/2000/svg">
<path d="M6.30769 12.8594C3.23077 13.7631 3.23077 11.3534 2 11.0522M10.6154 14.6667V12.3354C10.6385 12.0481 10.5988 11.7593 10.4991 11.4882C10.3993 11.2172 10.2418 10.97 10.0369 10.7631C11.9692 10.5522 14 9.83537 14 6.54623C13.9998 5.70517 13.6693 4.89636 13.0769 4.28721C13.3575 3.55138 13.3376 2.73803 13.0215 2.01614C13.0215 2.01614 12.2954 1.8053 10.6154 2.9077C9.20493 2.5335 7.71815 2.5335 6.30769 2.9077C4.62769 1.8053 3.90154 2.01614 3.90154 2.01614C3.58546 2.73803 3.56563 3.55138 3.84615 4.28721C3.24931 4.90088 2.91848 5.717 2.92308 6.56431C2.92308 9.82935 4.95385 10.5462 6.88615 10.7811C6.68369 10.9859 6.52755 11.2302 6.42788 11.498C6.32822 11.7657 6.28727 12.0511 6.30769 12.3354V14.6667" stroke="#3D4955" stroke-linecap="round" stroke-linejoin="round"/>
</svg>
