<svg width="13" height="13" viewBox="0 0 13 13" fill="none" xmlns="http://www.w3.org/2000/svg">
<path d="M8.66667 4.33331C9.52863 4.33331 10.3553 4.67572 10.9648 5.28522C11.5743 5.89471 11.9167 6.72136 11.9167 7.58331V11.375H9.75001V7.58331C9.75001 7.29599 9.63587 7.02045 9.4327 6.81728C9.22954 6.61412 8.95399 6.49998 8.66667 6.49998C8.37935 6.49998 8.1038 6.61412 7.90064 6.81728C7.69748 7.02045 7.58334 7.29599 7.58334 7.58331V11.375H5.41667V7.58331C5.41667 6.72136 5.75908 5.89471 6.36857 5.28522C6.97807 4.67572 7.80472 4.33331 8.66667 4.33331V4.33331Z" stroke="#3D4955" stroke-linecap="round" stroke-linejoin="round"/>
<path d="M3.24999 4.875H1.08333V11.375H3.24999V4.875Z" stroke="#3D4955" stroke-linecap="round" stroke-linejoin="round"/>
<path d="M2.16666 3.24998C2.76497 3.24998 3.24999 2.76495 3.24999 2.16665C3.24999 1.56834 2.76497 1.08331 2.16666 1.08331C1.56835 1.08331 1.08333 1.56834 1.08333 2.16665C1.08333 2.76495 1.56835 3.24998 2.16666 3.24998Z" stroke="#3D4955" stroke-linecap="round" stroke-linejoin="round"/>
</svg>
